<svg width="107" height="131" viewBox="0 0 107 131" fill="none" xmlns="http://www.w3.org/2000/svg">
<g id="Group 8">
<path id="Vector" d="M71.0651 131L21.5358 130.746C17.091 130.189 12.9256 128.377 9.58048 125.547C7.09043 123.379 5.13996 120.713 3.87031 117.743C3.10822 115.74 2.5669 113.667 2.255 111.558C1.61711 108.339 1.32903 105.851 1.0821 103.422C0.835177 100.993 0.732291 99.325 0.52652 95.8326C0.52652 95.4229 0.331036 92.5061 0.228151 90.038C-0.0907957 82.429 0.00180158 74.0102 0.0532445 71.5032C0.0842547 71.4586 0.118641 71.4162 0.15613 71.3763C16.8957 85.814 29.8387 96.7789 31.9993 97.9202L32.3285 98.2129L32.5035 98.3494C33.1002 98.8372 45.035 108.944 71.0651 131Z" fill="#129FC6"/>
<path id="Vector_2" d="M90.8809 1.91929V4.34833V39.8767C90.6936 44.3893 90.0318 48.8729 88.9055 53.2609C87.8766 57.3873 86.9712 61.065 84.6769 64.9671C81.6589 69.9802 77.2919 74.1443 72.0219 77.0342L55.0149 85.0628L39.7672 92.2621C39.5717 92.3694 39.3659 92.4572 39.1704 92.5548L34.4788 94.7692C34.049 94.9771 33.6423 95.2255 33.2648 95.5106C32.9188 95.7308 32.6246 96.0164 32.4005 96.3495C31.9581 97.1104 32.4005 97.9104 32.3079 98.0079C32.2154 98.1055 32.1639 98.0079 31.9993 97.9201C29.8387 96.7788 16.8956 85.8139 0.156109 71.3762L0.0532227 71.2884C0.258994 64.3428 0.468196 57.3971 0.680827 50.4514C1.12371 47.2275 2.2814 44.1291 4.07774 41.3599C5.87408 38.5907 8.26838 36.2135 11.1032 34.3846C16.9368 30.4825 21.8136 28.5314 28.7378 25.6049L32.8018 23.8977C36.2793 22.4149 40.2919 20.659 45.0864 18.386L74.0179 6.11402C81.3742 2.99236 86.1173 0.94377 87.1667 0.524297C87.5272 0.329247 87.927 0.208452 88.3401 0.169792C88.7532 0.131131 89.1702 0.175474 89.5639 0.299928C89.897 0.459543 90.1882 0.687831 90.416 0.968044C90.6439 1.24826 90.8028 1.57329 90.8809 1.91929Z" fill="#2DBFC5"/>
<g id="Vector_3" style="mix-blend-mode:screen">
<path d="M106.859 1.91926C105.707 14.523 104.551 27.1202 103.392 39.7109C102.794 44.1896 101.729 48.601 100.213 52.8804C98.7824 56.9093 97.5787 60.4602 94.9448 64.1769C91.4752 68.9385 86.7356 72.7423 81.2095 75.2003L55.0148 85.0628L72.0218 77.0342C77.2845 74.1321 81.6407 69.9579 84.6459 64.9378C86.9403 61.0357 87.8045 57.3873 88.8745 53.2316C89.9988 48.8531 90.6606 44.3795 90.8499 39.8767V4.3483C97.8153 2.06559 102.26 0.592555 103.289 0.241368C103.668 0.082216 104.078 0 104.493 0C104.907 0 105.317 0.082216 105.696 0.241368C106.008 0.422843 106.274 0.667286 106.475 0.957298C106.676 1.24731 106.807 1.57576 106.859 1.91926Z" fill="white"/>
</g>
</g>
</svg>
